# xmcd
#
# Track frame offsets:
#	150
#	14378
#	25952
#	43685
#	62579
#	72858
#	89469
#	101285
#	116429
#	128663
#	138883
#	153102
#	170380
#	182439
#	198108
#	212446
#
# Disc length: 3032 seconds
# Revision: 0
# Processed by: cddbd v1.5.2PL0 Copyright (c) Steve Scherf et al.
# Submitted via: dBpowerAMP V12.0
#
DISCID=c30bd610
DTITLE=Jade Hurly - I Just Can't Make It On My Own
DYEAR=2010
DGENRE=Country
TTITLE0=Beautiful Sunday
TTITLE1=Jimmy Crack Corn
TTITLE2=When I Dream
TTITLE3=Dreaming My Dreams With You
TTITLE4=Quits
TTITLE5=The Three Stars
TTITLE6=Lifes a Beach
TTITLE7=Help a Child
TTITLE8=Maryanne
TTITLE9=The Ties That Bind
TTITLE10=The Bridge to Nowhere
TTITLE11=Good Morning Too You
TTITLE12=The Twelfth of Never
TTITLE13=Chariots of Fire
TTITLE14=I Just Can't Make It On My Own
TTITLE15=Australia For Me
EXTD=
EXTT0=
EXTT1=
EXTT2=
EXTT3=
EXTT4=
EXTT5=
EXTT6=
EXTT7=
EXTT8=
EXTT9=
EXTT10=
EXTT11=
EXTT12=
EXTT13=
EXTT14=
EXTT15=
PLAYORDER=
